PathFileType	4	(x/y/z)	S02_P20_T17
DataRate	CameraRate	NumFrames	NumMarkers	Units	OrigDataRate	OrigDataStartFrame	OrigNumFrames
240	240	7	51	mm	240	256	341
Frame#	Time	Sternum			R.Acromium			L.Acromium			Top.Head			R.ASIS			L.ASIS			R.PSIS			L.PSIS			R.Great.Tro			L.Great.Tro			R.Iliac.Crest			L.Iliac.Crest			V.Sacral			R.Thigh.Upper.Post			R.Thigh.Lower.Ant			R.Thigh.Lower.Post			R.Thigh.Upper.Ant			R.Knee.Lat			R.Knee.Med			R.Shank.Upper.Post			R.Shank.Lower.Ant			R.Shank.Lower.Post			R.Shank.Upper.Ant			R.Ankle.Lat			R.Ankle.Med			R.Heel.Upper			R.Heel.Med			R.Heel.Lat			R.Toe.Lat			R.Toe.Med			R.Toe.Tip			L.Thigh.Upper.Post			L.Thigh.Lower.Ant			L.Thigh.Lower.Post			L.Thigh.Upper.Ant			L.Knee.Lat			L.Knee.Med			L.Shank.Upper.Post			L.Shank.Lower.Ant			L.Shank.Lower.Post			L.Shank.Upper.Ant			L.Ankle.Lat			L.Ankle.Med			L.Heel.Upper			L.Heel.Med			L.Heel.Lat			L.Toe.Lat			L.Toe.Med			L.Toe.Tip			Cervical.Spine			Back			
		X1	Y1	Z1	X2	Y2	Z2	X3	Y3	Z3	X4	Y4	Z4	X5	Y5	Z5	X6	Y6	Z6	X7	Y7	Z7	X8	Y8	Z8	X9	Y9	Z9	X10	Y10	Z10	X11	Y11	Z11	X12	Y12	Z12	X13	Y13	Z13	X14	Y14	Z14	X15	Y15	Z15	X16	Y16	Z16	X17	Y17	Z17	X18	Y18	Z18	X19	Y19	Z19	X20	Y20	Z20	X21	Y21	Z21	X22	Y22	Z22	X23	Y23	Z23	X24	Y24	Z24	X25	Y25	Z25	X26	Y26	Z26	X27	Y27	Z27	X28	Y28	Z28	X29	Y29	Z29	X30	Y30	Z30	X31	Y31	Z31	X32	Y32	Z32	X33	Y33	Z33	X34	Y34	Z34	X35	Y35	Z35	X36	Y36	Z36	X37	Y37	Z37	X38	Y38	Z38	X39	Y39	Z39	X40	Y40	Z40	X41	Y41	Z41	X42	Y42	Z42	X43	Y43	Z43	X44	Y44	Z44	X45	Y45	Z45	X46	Y46	Z46	X47	Y47	Z47	X48	Y48	Z48	X49	Y49	Z49	X50	Y50	Z50	X51	Y51	Z51	

256	1.0625	181.43	1092.4	307.79	68.821	1330.9	442.72	67.531	1326.5	147.36	124.17	1615.6	282.3	128.02	908.87	416.96	155.02	910.1	206.18	-77.007	950.8	343.31	-77.542	960.66	269.89	48.171	792.86	497.6	38.537	831.32	107.77	24.482	955.16	466.64	35.864	963.5	129.77	-101.18	907.84	295.59	90.056	594.66	497.49	162.47	523.23	483.57	91.177	504.69	484.37	157.51	612.75	492.93	115.18	432.21	480.91	131.99	412.65	336.95	-76.113	364.68	454.46	-100.66	258.76	430.87	-132.13	318.09	439.84	-45.439	298.41	451.52	-201.78	248.14	422.63	-174.78	256.9	341.03	-237	298.55	368.49	-253.03	277.09	333.37	-268.06	276.99	396.75	-202.51	127.72	428.84	-172.34	112.77	324.3	-133.3	77.496	382.05	62.407	589.97	138.06	155.03	531.05	148.37	82.227	504.75	164.83	126.82	618.89	123.45	155.16	448.03	164.39	152.85	453.88	301.32	60.711	283.79	173.97	121.22	191.8	195.35	51.25	213.09	192.65	123.85	266.09	175.96	62.738	100.04	213.25	72.791	96.741	294.27	0.67071	68.008	246.71	8.4328	41.951	280.54	6.563	40.296	218.66	173.17	34.587	190.69	193.58	44.323	301.34	254.43	58.877	254.87	-8.8466	1389.5	294.12	-81.075	1136.1	306.6
257	1.0667	186.5	1093.7	307.99	73.902	1332.3	442.74	73.003	1327.7	147.31	129.86	1616.9	282.26	133.1	910.59	416.82	159.91	910.9	206.03	-71.817	952.52	343.01	-72.408	962.25	269.58	53.544	794.72	497.59	42.882	832.15	107.85	29.571	956.96	466.4	40.987	964.41	129.5	-96.213	909.58	295.41	98.878	596.98	497.84	172.19	526.45	483.74	101.08	507.03	484.77	166.22	615.92	493.12	126.07	434.8	481.13	142.67	415.64	337.04	-64.666	365.52	454.63	-88.161	259.41	430.92	-120.22	318.38	439.98	-33.339	299.56	451.57	-189.08	248.12	422.67	-162.46	256.88	341	-225.26	297.65	368.35	-241.03	275.74	333.41	-255.86	275.76	396.82	-187.86	127.84	429.51	-157.88	112.77	324.95	-118.07	78.523	382.76	64.839	590.92	138.33	156.92	531.15	148.76	83.855	505.48	165.01	129.54	619.26	123.84	156.14	448.14	164.73	153.87	453.87	301.69	61.095	284.04	174.18	121.44	191.93	195.5	51.432	213.44	192.72	124.21	266.23	176.16	62.803	100.21	213.35	72.866	96.86	294.35	0.70009	68.166	246.76	8.4386	42.078	280.57	6.5831	40.458	218.71	173.17	34.614	190.72	193.61	44.328	301.36	254.45	58.859	254.89	-3.4654	1390.9	293.94	-75.878	1137.6	305.94
258	1.0708	191.56	1094.9	308.17	79.002	1333.7	442.75	78.468	1329	147.28	135.52	1618.2	282.25	138.19	912.33	416.64	164.8	911.69	205.87	-66.61	954.27	342.72	-67.261	963.85	269.28	58.943	796.57	497.58	47.219	832.97	107.95	34.71	958.8	466.14	46.11	965.32	129.23	-91.246	911.34	295.26	107.65	599.34	498.16	181.84	529.71	483.84	110.91	509.42	485.14	174.86	619.11	493.26	136.89	437.44	481.29	153.29	418.69	337.08	-53.256	366.21	454.76	-75.592	259.9	430.98	-108.29	318.48	440.11	-21.215	300.61	451.59	-176.3	247.84	422.72	-150.06	256.59	340.98	-213.46	296.43	368.21	-228.95	274.04	333.46	-243.6	274.18	396.9	-173.01	127.74	430.21	-143.2	112.54	325.62	-102.62	79.383	383.5	67.261	591.87	138.64	158.78	531.26	149.19	85.463	506.23	165.23	132.24	619.63	124.26	157.08	448.27	165.09	154.89	453.87	302.08	61.46	284.31	174.4	121.65	192.08	195.67	51.598	213.81	192.79	124.55	266.39	176.38	62.864	100.39	213.44	72.948	96.988	294.43	0.73203	68.33	246.82	8.4395	42.212	280.6	6.6037	40.626	218.76	173.17	34.642	190.74	193.64	44.334	301.38	254.48	58.841	254.9	1.9106	1392.3	293.77	-70.692	1139.1	305.3
259	1.075	196.59	1096.1	308.33	84.118	1335.1	442.75	83.929	1330.2	147.26	141.17	1619.4	282.26	143.29	914.07	416.42	169.7	912.48	205.7	-61.389	956.04	342.46	-62.102	965.46	269.01	64.374	798.43	497.58	51.548	833.79	108.06	39.9	960.68	465.88	51.224	966.22	128.96	-86.273	913.11	295.14	116.38	601.73	498.46	191.42	533	483.87	120.69	511.84	485.46	183.44	622.32	493.34	147.61	440.1	481.38	163.85	421.8	337.07	-41.887	366.77	454.86	-62.959	260.24	431.03	-96.358	318.39	440.22	-9.0734	301.56	451.6	-163.44	247.29	422.78	-137.59	256.04	340.97	-201.61	294.89	368.08	-216.8	272.02	333.52	-231.26	272.27	396.98	-157.98	127.41	430.95	-128.32	112.1	326.33	-86.955	80.082	384.28	69.672	592.82	138.96	160.62	531.36	149.65	87.05	507	165.48	134.93	620	124.71	157.99	448.42	165.47	155.88	453.89	302.49	61.803	284.6	174.63	121.84	192.24	195.85	51.746	214.19	192.87	124.87	266.56	176.61	62.922	100.58	213.53	73.038	97.125	294.52	0.76693	68.501	246.87	8.4358	42.352	280.63	6.625	40.8	218.82	173.18	34.671	190.77	193.67	44.34	301.4	254.51	58.823	254.92	7.282	1393.7	293.62	-65.516	1140.5	304.66
260	1.0792	201.62	1097.4	308.48	89.249	1336.5	442.75	89.387	1331.5	147.26	146.79	1620.7	282.3	148.4	915.82	416.16	174.59	913.26	205.52	-56.155	957.83	342.22	-56.934	967.05	268.75	69.843	800.29	497.57	55.87	834.61	108.19	45.138	962.59	465.61	56.327	967.11	128.72	-81.293	914.89	295.06	125.04	604.13	498.74	200.91	536.31	483.84	130.39	514.3	485.75	191.93	625.53	493.38	158.24	442.79	481.4	174.34	424.94	337	-30.56	367.19	454.92	-50.264	260.44	431.1	-84.411	318.12	440.31	3.0799	302.42	451.59	-150.5	246.48	422.86	-125.04	255.25	340.97	-189.71	293.05	367.96	-204.56	269.66	333.6	-218.85	270.04	397.08	-142.77	126.87	431.72	-113.23	111.45	327.08	-71.1	80.627	385.09	72.07	593.78	139.31	162.44	531.47	150.14	88.617	507.77	165.77	137.61	620.36	125.17	158.87	448.58	165.87	156.85	453.92	302.91	62.124	284.89	174.87	122.02	192.43	196.02	51.879	214.57	192.96	125.16	266.76	176.85	62.977	100.78	213.62	73.137	97.271	294.61	0.80518	68.677	246.93	8.4279	42.498	280.66	6.647	40.98	218.87	173.18	34.701	190.8	193.7	44.349	301.42	254.54	58.805	254.93	12.649	1395	293.48	-60.347	1142	304.05
261	1.0833	206.63	1098.6	308.6	94.392	1337.8	442.73	94.842	1332.7	147.28	152.4	1621.9	282.35	153.52	917.56	415.86	179.49	914.05	205.32	-50.912	959.61	342.02	-51.758	968.64	268.52	75.355	802.14	497.56	60.184	835.43	108.34	50.423	964.51	465.34	61.413	967.99	128.49	-76.305	916.66	295.01	133.65	606.54	499.01	210.32	539.63	483.75	140.01	516.77	485.99	200.33	628.74	493.36	168.77	445.5	481.37	184.75	428.12	336.89	-19.275	367.48	454.94	-37.513	260.49	431.17	-72.453	317.66	440.39	15.24	303.19	451.58	-137.48	245.43	422.95	-112.41	254.2	340.98	-177.73	290.9	367.85	-192.22	267	333.69	-206.34	267.49	397.19	-127.38	126.13	432.53	-97.952	110.6	327.86	-55.063	81.024	385.95	74.457	594.73	139.68	164.23	531.57	150.65	90.162	508.56	166.08	140.26	620.72	125.65	159.72	448.75	166.28	157.75	453.96	303.34	62.421	285.2	175.13	122.18	192.63	196.2	51.998	214.95	193.07	125.43	266.97	177.09	63.031	100.98	213.7	73.246	97.425	294.71	0.84711	68.859	246.99	8.4169	42.65	280.69	6.6697	41.164	218.92	173.18	34.731	190.84	193.73	44.36	301.43	254.57	58.788	254.94	18.012	1396.4	293.36	-55.183	1143.4	303.46
262	1.0875	211.64	1099.8	308.72	99.545	1339.1	442.7	100.3	1334	147.31	157.98	1623.1	282.42	158.65	919.3	415.53	184.38	914.83	205.11	-45.664	961.39	341.84	-46.577	970.2	268.33	80.913	803.99	497.55	64.492	836.26	108.5	55.752	966.44	465.05	66.48	968.87	128.28	-71.307	918.42	295	142.18	608.94	499.25	219.62	542.96	483.61	149.54	519.26	486.2	208.63	631.93	493.3	179.19	448.22	481.28	195.06	431.32	336.74	-8.0335	367.63	454.93	-24.707	260.41	431.26	-60.485	317.03	440.45	27.404	303.87	451.56	-124.39	244.14	423.05	-99.693	252.91	341	-165.68	288.45	367.74	-179.78	264.03	333.79	-193.75	264.64	397.3	-111.83	125.2	433.37	-82.473	109.58	328.69	-38.854	81.283	386.86	76.83	595.69	140.06	166	531.67	151.17	91.686	509.35	166.42	142.9	621.06	126.15	160.54	448.93	166.71	158.59	454.01	303.78	62.693	285.52	175.4	122.31	192.84	196.37	52.11	215.32	193.21	125.68	267.2	177.33	63.086	101.19	213.79	73.366	97.587	294.8	0.89293	69.045	247.05	8.4039	42.808	280.73	6.6931	41.354	218.98	173.19	34.761	190.87	193.76	44.373	301.45	254.6	58.77	254.96	23.371	1397.7	293.24	-50.024	1144.8	302.88
